# xmcd
#
# Track frame offsets:
#	150
#	21139
#	40506
#	63721
#	82845
#	110887
#	133012
#	154149
#	177968
#	197480
#	221445
#	238368
#	264040
#	281369
#	301651
#	317030
#
# Disc length: 4430 seconds
#
# Revision: 0
# Processed by: cddbd v1.5PL3 Copyright (c) Steve Scherf et al.
# Submitted via: dBpowerAMP V4.0
#
DISCID=d5114c10
DTITLE=Kenny G - The Moment
DYEAR=1900
DGENRE=
TTITLE0=Brazil
TTITLE1=Paradise
TTITLE2=Malibu Dreams
TTITLE3=One More Time
TTITLE4=Spanish Nights
TTITLE5=Seaside Jam
TTITLE6=Ocean Breeze
TTITLE7=Falling in the moonlight
TTITLE8=All the way
TTITLE9=Midnight magic
TTITLE10=Peace
TTITLE11=Going Home
TTITLE12=Reflection
TTITLE13=My heart will go on
TTITLE14=Because I love you
TTITLE15=Spring Breeze
EXTD=
EXTT0=
EXTT1=
EXTT2=
EXTT3=
EXTT4=
EXTT5=
EXTT6=
EXTT7=
EXTT8=
EXTT9=
EXTT10=
EXTT11=
EXTT12=
EXTT13=
EXTT14=
EXTT15=
PLAYORDER=
